<?xml version="1.0" standalone="no"?>
<!DOCTYPE svg PUBLIC "-//W3C//DTD SVG 20010904//EN"
 "http://www.w3.org/TR/2001/REC-SVG-20010904/DTD/svg10.dtd">
<svg version="1.0" xmlns="http://www.w3.org/2000/svg"
 width="144.000000pt" height="144.000000pt" viewBox="0 0 144.000000 144.000000"
 preserveAspectRatio="xMidYMid meet">
<metadata>
Created by potrace 1.14, written by Peter Selinger 2001-2017
</metadata>
<g transform="translate(0.000000,144.000000) scale(0.100000,-0.100000)"
fill="#000000" stroke="none">
<path d="M409 1186 c-2 -2 -47 -6 -99 -10 -152 -10 -208 -49 -237 -162 -17
-68 -27 -441 -13 -514 4 -25 10 -59 13 -76 6 -38 29 -84 54 -106 57 -52 161
-63 608 -63 461 0 544 12 599 88 34 46 53 173 54 362 1 334 -37 437 -168 459
-19 3 -51 8 -70 12 -36 6 -735 16 -741 10z"/>
</g>
</svg>
